{"title":"Silk S03E05 720P x264 RB58.mp4","uid":9821839,"size":1061939260,"categoryP":"video","categoryS":"hd___tv_shows","magnet":"?xt=urn:btih:ab60a41c34511feadc904393593cccd5ee082ff2&amp;dn=Silk+S03E05+720P+x264+RB58.mp4&amp;tr=udp%3A%2F%2Ftracker.openbittorrent.com%3A80&amp;tr=udp%3A%2F%2Fopen.demonii.com%3A1337&amp;tr=udp%3A%2F%2Ftracker.coppersurfer.tk%3A6969&amp;tr=udp%3A%2F%2Fexodus.desync.com%3A6969","seeders":2,"leechers":0,"uploader":"RedBaron58","files":1,"time":1395708876,"description":"Silk S03E05 (BBC) 2014 720P x264\n &lt;a href=&quot;\nhttp://www.imdb.com/title/tt1717455/&quot; rel=&quot;nofollow&quot; target=&quot;_NEW&quot;&gt;\nhttp://www.imdb.com/title/tt1717455/&lt;/a&gt; \n\n\n\nPlease be patient My upload speed is limited, but I am online most the time and during the night.\nThank you for your kind comments and thumbs ups on my other torrents, your feedback is welcome.\n\n\nAbout the Episode:\nMartha is forced to put aside her personal feelings when she is asked to defend a close friend \nfrom her youth on trial for a gangland killing. The evidence against him is overwhelming, \nwith his fingerprints and CCTV footage putting him at the scene. \nBut to Martha it all seems a little too convenient. However, is she strong enough to ask her friend \nthe tough questions needed to do her job properly? \nBilly is shocked when solicitor-turned-supergrass Micky Joy appears looking for redemption.\n\n\n\nI hope you enjoy.\n\n\nTechnical:\n\nGeneral\nComplete name                            : E:Silk S03 RB58Silk S03E05 720P x264 RB58.mp4\nFormat                                   : MPEG-4\nFormat profile                           : Base Media\nCodec ID                                 : isom\nFile size                                : 1 013 MiB\nDuration                                 : 59mn 7s\nOverall bit rate mode                    : Variable\nOverall bit rate                         : 2 395 Kbps\nWriting application                      : Lavf54.63.104\n\nVideo\nID                                       : 1\nFormat                                   : AVC\nFormat/Info                              : Advanced Video Codec\nFormat profile                           : &lt;a class=&quot;__cf_email__&quot; href=&quot;/cdn-cgi/l/email-protection&quot; data-cfemail=&quot;044c6d636c4448302a35&quot;&gt;[email&amp;#160;protected]&lt;/a&gt;&lt;script cf-hash='f9e31' type=&quot;text/javascript&quot;&gt;\n/* &lt;![CDATA[ */!function(){try{var t=&quot;currentScript&quot;in document?document.currentScript:function(){for(var t=document.getElementsByTagName(&quot;script&quot;),e=t.length;e--;)if(t[e].getAttribute(&quot;cf-hash&quot;))return t[e]}();if(t&amp;&amp;t.previousSibling){var e,r,n,i,c=t.previousSibling,a=c.getAttribute(&quot;data-cfemail&quot;);if(a){for(e=&quot;&quot;,r=parseInt(a.substr(0,2),16),n=2;a.length-n;n+=2)i=parseInt(a.substr(n,2),16)^r,e+=String.fromCharCode(i);e=document.createTextNode(e),c.parentNode.replaceChild(e,c)}}}catch(u){}}();/* ]]&gt; */&lt;/script&gt;\nFormat settings, CABAC                   : Yes\nFormat settings, ReFrames                : 2 frames\nCodec ID                                 : avc1\nCodec ID/Info                            : Advanced Video Coding\nDuration                                 : 59mn 7s\nBit rate mode                            : Variable\nBit rate                                 : 2 296 Kbps\nMaximum bit rate                         : 3 500 Kbps\nWidth                                    : 1 280 pixels\nHeight                                   : 720 pixels\nDisplay aspect ratio                     : 16:9\nFrame rate mode                          : Constant\nFrame rate                               : 25.000 fps\nColor space                              : YUV\nChroma subsampling                       : 4:2:0\nBit depth                                : 8 bits\nScan type                                : Progressive\nBits/(Pixel*Frame)                       : 0.100\nStream size                              : 971 MiB (96%)\n\nAudio\nID                                       : 2\nFormat                                   : AAC\nFormat/Info                              : Advanced Audio Codec\nFormat profile                           : LC\nCodec ID                                 : 40\nDuration                                 : 59mn 7s\nBit rate mode                            : Constant\nBit rate                                 : 93.5 Kbps\nChannel(s)                               : 2 channels\nChannel positions                        : Front: L R\nSampling rate                            : 48.0 KHz\nCompression mode                         : Lossy\nStream size                              : 39.5 MiB (4%)","torrent":{"xt":"urn:btih:ab60a41c34511feadc904393593cccd5ee082ff2","amp;dn":"Silk+S03E05+720P+x264+RB58.mp4","amp;tr":["udp%3A%2F%2Ftracker.openbittorrent.com%3A80","udp%3A%2F%2Fopen.demonii.com%3A1337","udp%3A%2F%2Ftracker.coppersurfer.tk%3A6969","udp%3A%2F%2Fexodus.desync.com%3A6969"],"infoHash":"ab60a41c34511feadc904393593cccd5ee082ff2","infoHashBuffer":{"type":"Buffer","data":[171,96,164,28,52,81,31,234,220,144,67,147,89,60,204,213,238,8,47,242]},"announce":[],"urlList":[]}}